<svg width="296" height="85" viewBox="0 0 296 85" fill="none" xmlns="http://www.w3.org/2000/svg">
<path opacity="0.2" fill-rule="evenodd" clip-rule="evenodd" d="M0 26.7143L4.48485 29.1429C10.4646 31.5714 19.4343 36.4286 29.899 34C38.8687 31.5714 49.3333 21.8571 59.798 14.5714C68.7677 9.71428 79.2323 4.85714 88.202 14.5714C98.6667 21.8571 109.131 46.1429 118.101 46.1429C128.566 46.1429 137.535 21.8571 148 12.1429C158.465 0 167.434 0 177.899 14.5714C186.869 26.7143 197.333 55.8571 207.798 55.8571C216.768 55.8571 227.232 26.7143 236.202 17C246.667 9.71429 257.131 17 266.101 17C276.566 17 285.535 9.71429 291.515 4.85714L296 0V85H291.515C285.535 85 276.566 85 266.101 85C257.131 85 246.667 85 236.202 85C227.232 85 216.768 85 207.798 85C197.333 85 186.869 85 177.899 85C167.434 85 158.465 85 148 85C137.535 85 128.566 85 118.101 85C109.131 85 98.6667 85 88.202 85C79.2323 85 68.7677 85 59.798 85C49.3333 85 38.8687 85 29.899 85C19.4343 85 10.4646 85 4.48485 85H0V26.7143Z" fill="#00ADD2"/>
</svg>
