<svg width="299" height="60" viewBox="0 0 299 60" fill="none" xmlns="http://www.w3.org/2000/svg">
<path d="M1 28.7143L5.48485 31.1429C11.4646 33.5714 20.4343 38.4286 30.899 36C39.8687 33.5714 50.3333 23.8571 60.798 16.5714C69.7677 11.7143 80.2323 6.85714 89.202 16.5714C99.6667 23.8571 110.131 48.1429 119.101 48.1429C129.566 48.1429 138.535 23.8571 149 14.1429C159.465 2 168.434 2 178.899 16.5714C187.869 28.7143 198.333 57.8571 208.798 57.8571C217.768 57.8571 228.232 28.7143 237.202 19C247.667 11.7143 258.131 19 267.101 19C277.566 19 286.535 11.7143 292.515 6.85714L297 2" stroke="#00ADD2" stroke-width="3"/>
</svg>
